# File created by Blade
# Date/Time:  Wed Apr 08 17:17:01 2015
# Frame Rate: 120.000 fps
#------------------------------------------------------
:FULLY-SPECIFIED
:DEGREES
1452
root 5.507214 36.510367 6.185184 176.911716 -40.037983 -165.748753
Spine 8.361085 -4.455642 5.622772
Head 8.411397 1.209645 15.841137
LeftShoulder -6.675258 15.327326 17.809065
LeftArm 17.405030 30.013660 -77.159682
LeftForeArm 29.591646 -0.000000 29.890251
LeftHand -9.234013 0.000000 -21.139241
LeftHandThumb1 -26.253704 0.000000 33.147579
RightShoulder -35.826420 -46.853519 25.656525
RightArm 54.121495 -19.335138 56.004386
RightForeArm 12.359953 -0.000000 3.710595
RightHand -3.272664 0.000000 9.611785
RightHandThumb1 -24.326973 -0.000000 -32.862282
LeftUpLeg -4.220195 28.530153 -2.065680
LeftLeg 7.261070 -0.000000 -0.000000
LeftFoot -18.305005 17.329346 -12.124511
LeftToeBase 4.823282 -0.000000 -0.000000
RightUpLeg -17.895499 -3.006847 -9.082094
RightLeg 141.856237 -0.000000 -0.000000
RightFoot 39.266970 8.062857 22.028919
RightToeBase 11.790071 -0.000000 -0.000000
1453
root 5.486248 36.506449 6.169431 176.462652 -40.777177 -165.727626
Spine 8.445493 -4.409808 5.800947
Head 8.585482 1.049343 15.830546
LeftShoulder -6.641486 15.330156 17.847687
LeftArm 17.429415 30.155634 -77.105924
LeftForeArm 29.860999 -0.000000 29.962816
LeftHand -8.968134 -0.000000 -21.079879
LeftHandThumb1 -26.253704 0.000000 33.147579
RightShoulder -35.671385 -46.788970 25.426361
RightArm 54.453475 -19.487333 55.375891
RightForeArm 11.756767 -0.000000 3.837738
RightHand -3.100868 -0.000000 9.517014
RightHandThumb1 -24.326973 -0.000000 -32.862282
LeftUpLeg -3.820576 28.417540 -1.905278
LeftLeg 7.364353 -0.000000 -0.000000
LeftFoot -18.174375 16.943294 -11.841282
LeftToeBase 4.800178 -0.000000 -0.000000
RightUpLeg -18.714603 -3.384808 -8.748674
RightLeg 141.315925 -0.000000 -0.000000
RightFoot 39.052858 7.996098 21.962278
RightToeBase 11.574190 -0.000000 -0.000000
1454
root 5.463852 36.504015 6.158997 176.000766 -41.414153 -165.677727
Spine 8.538388 -4.267916 6.024852
Head 8.766868 0.892729 15.779087
LeftShoulder -6.606360 15.333149 17.840389
LeftArm 17.452787 30.230480 -77.052274
LeftForeArm 29.804821 0.000000 30.124873
LeftHand -9.038640 -0.000000 -21.085660
LeftHandThumb1 -26.253704 0.000000 33.147579
RightShoulder -35.420588 -46.690865 25.063725
RightArm 54.696486 -19.681391 54.705109
RightForeArm 11.388142 -0.000000 4.049685
RightHand -2.914878 -0.000000 9.936368
RightHandThumb1 -24.326973 -0.000000 -32.862282
LeftUpLeg -3.301793 28.034054 -1.716647
LeftLeg 7.253243 -0.000000 -0.000000
LeftFoot -18.081500 16.817528 -11.769780
LeftToeBase 4.805804 -0.000000 -0.000000
RightUpLeg -19.638128 -3.654151 -8.421563
RightLeg 140.720038 -0.000000 -0.000000
RightFoot 38.964005 7.664297 22.194369
RightToeBase 11.386108 -0.000000 -0.000000
1455
root 5.449435 36.502133 6.143692 175.589995 -42.102002 -165.645730
Spine 8.586296 -4.154273 6.166247
Head 8.915816 0.724568 15.804413
LeftShoulder -6.595539 15.334884 17.859836
LeftArm 17.493814 30.218015 -76.984199
LeftForeArm 29.482781 -0.000000 30.376180
LeftHand -9.412898 0.000000 -21.477100
LeftHandThumb1 -26.253704 0.000000 33.147579
RightShoulder -35.235870 -46.610180 24.783942
RightArm 54.888600 -19.752214 54.236238
RightForeArm 11.043864 -0.000000 4.287803
RightHand -2.773592 -0.000000 10.268146
RightHandThumb1 -24.326973 -0.000000 -32.862282
LeftUpLeg -2.887090 27.734833 -1.559044
LeftLeg 7.234955 -0.000000 -0.000000
LeftFoot -17.982977 16.574052 -11.653950
LeftToeBase 4.812470 -0.000000 -0.000000
RightUpLeg -20.649496 -4.038538 -8.056946
RightLeg 140.110041 -0.000000 -0.000000
RightFoot 38.790374 7.385259 22.135490
RightToeBase 11.297379 -0.000000 -0.000000
1456
root 5.433585 36.500628 6.131334 175.204175 -42.742116 -165.650733
Spine 8.648457 -3.999590 6.267567
Head 9.055391 0.521941 15.838460
LeftShoulder -6.739956 15.365203 17.835020
LeftArm 17.721857 30.386484 -76.760180
LeftForeArm 29.273137 -0.000000 30.499738
LeftHand -9.527739 0.000000 -21.508560
LeftHandThumb1 -26.253704 0.000000 33.147579
RightShoulder -35.035252 -46.550591 24.483769
RightArm 55.067540 -19.779413 53.811094
RightForeArm 10.948327 -0.000000 4.476145
RightHand -2.407246 0.000000 10.629554
RightHandThumb1 -24.326973 -0.000000 -32.862282
LeftUpLeg -2.463998 27.518491 -1.434765
LeftLeg 7.195294 -0.000000 -0.000000
LeftFoot -17.857072 16.299566 -11.548379
LeftToeBase 4.829684 -0.000000 -0.000000
RightUpLeg -21.545819 -4.269078 -7.761533
RightLeg 139.448834 -0.000000 -0.000000
RightFoot 38.530447 7.219989 22.509316
RightToeBase 10.930744 -0.000000 -0.000000
1457
root 5.421198 36.500225 6.118849 174.827424 -43.360372 -165.640395
Spine 8.697976 -3.848772 6.358410
Head 9.196605 0.357571 15.884541
LeftShoulder -6.789990 15.324895 17.857323
LeftArm 17.704007 30.417064 -76.712079
LeftForeArm 29.430476 0.000000 30.658053
LeftHand -9.570830 0.000000 -21.353178
LeftHandThumb1 -26.253704 0.000000 33.147579
RightShoulder -34.798080 -46.511178 24.153115
RightArm 55.157114 -19.711353 53.511535
RightForeArm 11.249033 -0.000000 4.841398
RightHand -2.638420 -0.000000 11.100523
RightHandThumb1 -24.326973 -0.000000 -32.862282
LeftUpLeg -2.081630 27.266499 -1.298930
LeftLeg 7.200280 -0.000000 -0.000000
LeftFoot -17.780555 16.028735 -11.511429
LeftToeBase 4.870107 -0.000000 -0.000000
RightUpLeg -22.488212 -4.489542 -7.449811
RightLeg 138.756167 -0.000000 -0.000000
RightFoot 38.245731 6.933609 22.931541
RightToeBase 10.670870 -0.000000 -0.000000
1458
root 5.410342 36.498918 6.102988 174.446468 -43.959059 -165.636589
Spine 8.768706 -3.691348 6.426921
Head 9.310507 0.163179 15.912526
LeftShoulder -6.797838 15.362873 17.855081
LeftArm 17.682713 30.333235 -76.627320
LeftForeArm 29.491327 -0.000000 30.930207
LeftHand -9.584702 -0.000000 -21.250031
LeftHandThumb1 -26.253704 0.000000 33.147579
RightShoulder -34.774137 -46.476058 23.991669
RightArm 55.353969 -19.534701 53.312053
RightForeArm 11.248987 -0.000000 5.056630
RightHand -2.477986 -0.000000 11.402994
RightHandThumb1 -24.326973 -0.000000 -32.862282
LeftUpLeg -1.691502 27.064143 -1.147579
LeftLeg 7.231985 -0.000000 -0.000000
LeftFoot -17.718635 15.679532 -11.488113
LeftToeBase 4.940359 -0.000000 -0.000000
RightUpLeg -23.516209 -4.740469 -7.099779
RightLeg 138.048457 -0.000000 -0.000000
RightFoot 38.101297 6.695182 22.883768
RightToeBase 10.147513 -0.000000 -0.000000
1459
root 5.400970 36.498328 6.088637 174.073389 -44.555447 -165.651712
Spine 8.859446 -3.532598 6.455401
Head 9.399422 -0.058719 15.936307
LeftShoulder -6.819110 15.372238 17.872142
LeftArm 17.673507 30.246168 -76.555034
LeftForeArm 29.458017 0.000000 31.115772
LeftHand -9.487029 0.000000 -21.327436
LeftHandThumb1 -26.253704 0.000000 33.147579
RightShoulder -34.473628 -46.409084 23.588163
RightArm 55.155581 -19.223956 53.600689
RightForeArm 11.272075 -0.000000 5.463350
RightHand -2.411749 -0.000000 11.707733
RightHandThumb1 -24.326973 -0.000000 -32.862282
LeftUpLeg -1.299045 26.865915 -1.009044
LeftLeg 7.262823 -0.000000 -0.000000
LeftFoot -17.662363 15.311216 -11.500697
LeftToeBase 5.010247 -0.000000 -0.000000
RightUpLeg -24.515888 -4.963717 -6.785873
RightLeg 137.340460 -0.000000 -0.000000
RightFoot 37.908865 6.406564 22.924422
RightToeBase 9.536747 -0.000000 -0.000000
1460
root 5.394005 36.497390 6.075068 173.765501 -45.147542 -165.674403
Spine 8.889651 -3.404744 6.474460
Head 9.490450 -0.223195 15.931673
LeftShoulder -6.875276 15.401080 17.840334
LeftArm 17.645099 30.110293 -76.459535
LeftForeArm 29.471847 -0.000000 31.340106
LeftHand -9.426282 -0.000000 -21.113317
LeftHandThumb1 -26.253704 0.000000 33.147579
RightShoulder -34.356889 -46.395438 23.360665
RightArm 55.154076 -18.881761 53.748222
RightForeArm 11.330272 0.000000 5.849361
RightHand -2.300252 -0.000000 12.032919
RightHandThumb1 -24.326973 -0.000000 -32.862282
LeftUpLeg -0.981473 26.676040 -0.909546
LeftLeg 7.295552 -0.000000 -0.000000
LeftFoot -17.595004 14.960108 -11.492157
LeftToeBase 5.075671 -0.000000 -0.000000
RightUpLeg -25.553227 -5.135839 -6.489846
RightLeg 136.639897 -0.000000 -0.000000
RightFoot 37.649977 6.035830 23.194216
RightToeBase 9.447812 -0.000000 -0.000000
1461
root 5.388447 36.497292 6.054732 173.400334 -45.771872 -165.667828
Spine 8.963265 -3.305850 6.476588
Head 9.557002 -0.420261 15.936145
LeftShoulder -6.907844 15.431673 17.821986
LeftArm 17.625831 29.986204 -76.353701
LeftForeArm 29.394326 -0.000000 31.531387
LeftHand -9.453645 -0.000000 -21.315313
LeftHandThumb1 -26.253704 0.000000 33.147579
RightShoulder -34.288441 -46.294648 23.149436
RightArm 55.124658 -18.570665 53.934907
RightForeArm 11.306399 -0.000000 6.244536
RightHand -2.151625 0.000000 12.148800
RightHandThumb1 -24.326973 -0.000000 -32.862282
LeftUpLeg -0.626498 26.467814 -0.760222
LeftLeg 7.345053 -0.000000 -0.000000
LeftFoot -17.540368 14.568931 -11.528433
LeftToeBase 5.172512 -0.000000 -0.000000
RightUpLeg -26.506601 -5.327142 -6.164521
RightLeg 135.940291 -0.000000 -0.000000
RightFoot 37.206960 5.605378 23.437074
RightToeBase 9.689901 -0.000000 -0.000000
1462
root 5.387082 36.497467 6.038903 173.002860 -46.315719 -165.627573
Spine 9.079361 -3.170365 6.499848
Head 9.608028 -0.576748 15.921348
LeftShoulder -6.955057 15.457051 17.800330
LeftArm 17.594729 29.840310 -76.275872
LeftForeArm 29.229967 -0.000000 31.714667
LeftHand -9.451879 -0.000000 -21.253756
LeftHandThumb1 -26.253704 0.000000 33.147579
RightShoulder -34.157307 -46.191948 22.881204
RightArm 55.141134 -18.331188 54.042557
RightForeArm 11.184946 -0.000000 6.665758
RightHand -2.118343 -0.000000 12.349993
RightHandThumb1 -24.326973 -0.000000 -32.862282
LeftUpLeg -0.270873 26.323859 -0.585960
LeftLeg 7.398819 -0.000000 -0.000000
LeftFoot -17.500925 14.232481 -11.510196
LeftToeBase 5.239032 -0.000000 -0.000000
RightUpLeg -27.488556 -5.439419 -5.799186
RightLeg 135.282479 -0.000000 -0.000000
RightFoot 36.696575 5.074856 23.590310
RightToeBase 9.710915 -0.000000 -0.000000
